HIERARCHY
ROOT Hips
{
    OFFSET 0.0 0.0 0.0
    CHANNELS 6 Xposition Yposition Zposition Zrotation Xrotation Yrotation
    JOINT LHipJoint
    {
        OFFSET 0.1 0.0 0.0
        CHANNELS 3 Zrotation Xrotation Yrotation
        JOINT LeftHip
        {
            OFFSET 0.11797939240932465 0.0 0.0
            CHANNELS 3 Zrotation Xrotation Yrotation
            JOINT LeftKnee
            {
                OFFSET 0.0 0.0 -0.5369522571563721
                CHANNELS 3 Zrotation Xrotation Yrotation
                JOINT LeftAnkle
                {
                    OFFSET 0.0 0.0 -0.5022242069244385
                    CHANNELS 3 Zrotation Xrotation Yrotation
                    End Site
                    {
                        OFFSET 0.0 -0.1 0.0
                    }
                }
            }
        }
    }
    JOINT lowerback
    {
        OFFSET 0.0 0.0 0.1
        CHANNELS 3 Zrotation Xrotation Yrotation
        JOINT Chest
        {
            OFFSET 0.0 0.0 0.22717846930027008
            CHANNELS 3 Zrotation Xrotation Yrotation
            JOINT Chest2
            {
                OFFSET 0.0 0.0 0.25233614444732666
                CHANNELS 3 Zrotation Xrotation Yrotation
                JOINT LeftCollar
                {
                    OFFSET 0.1 0.0 0.0
                    CHANNELS 3 Zrotation Xrotation Yrotation
                    JOINT LeftShoulder
                    {
                        OFFSET 0.1382496953010559 0.0 0.0
                        CHANNELS 3 Zrotation Xrotation Yrotation
                        JOINT LeftElbow
                        {
                            OFFSET 0.25486326217651367 0.0 0.0
                            CHANNELS 3 Zrotation Xrotation Yrotation
                            JOINT LeftWrist
                            {
                                OFFSET 0.24985063076019287 0.0 0.0
                                CHANNELS 3 Zrotation Xrotation Yrotation
                                End Site
                                {
                                    OFFSET 0.1 0.0 0.0
                                }
                            }
                        }
                    }
                }
                JOINT Neck
                {
                    OFFSET 0.0 0.0 0.1
                    CHANNELS 3 Zrotation Xrotation Yrotation
                    JOINT Head
                    {
                        OFFSET 0.0 0.0 0.1581210047006607
                        CHANNELS 3 Zrotation Xrotation Yrotation
                        End Site
                        {
                            OFFSET 0.0 0.0 0.1347239911556244
                        }
                    }
                }
                JOINT RightCollar
                {
                    OFFSET -0.1 0.0 0.0
                    CHANNELS 3 Zrotation Xrotation Yrotation
                    JOINT RightShoulder
                    {
                        OFFSET -0.1382496953010559 0.0 0.0
                        CHANNELS 3 Zrotation Xrotation Yrotation
                        JOINT RightElbow
                        {
                            OFFSET -0.25486326217651367 0.0 0.0
                            CHANNELS 3 Zrotation Xrotation Yrotation
                            JOINT RightWrist
                            {
                                OFFSET -0.24985063076019287 0.0 0.0
                                CHANNELS 3 Zrotation Xrotation Yrotation
                                End Site
                                {
                                    OFFSET -0.1 0.0 0.0
                                }
                            }
                        }
                    }
                }
            }
        }
    }
    JOINT RHipJoint
    {
        OFFSET -0.1 0.0 0.0
        CHANNELS 3 Zrotation Xrotation Yrotation
        JOINT RightHip
        {
            OFFSET -0.11797939240932465 0.0 0.0
            CHANNELS 3 Zrotation Xrotation Yrotation
            JOINT RightKnee
            {
                OFFSET 0.0 0.0 -0.5369522571563721
                CHANNELS 3 Zrotation Xrotation Yrotation
                JOINT RightAnkle
                {
                    OFFSET 0.0 0.0 -0.5022242069244385
                    CHANNELS 3 Zrotation Xrotation Yrotation
                    End Site
                    {
                        OFFSET 0.0 -0.1 0.0
                    }
                }
            }
        }
    }
}
MOTION
Frames: 4
Frame Time: 0.03333333333333333
-8.557279215892777e-06 1.432287335395813 -1.9610779418144375e-05 108.48159191882421 38.15250937183183 70.12709895790121 -1.7655625192200634e-31 6.3611093629270335e-15 3.1805546814635168e-15 -4.851756269425557 8.936107909506818 0.840463940012597 -1.6538749039850076 3.1082691079091704 6.3857120691504 -6.3611093629270335e-15 1.7655625192200634e-31 -3.1805546814635168e-15 -1.7655625192200634e-31 6.3611093629270335e-15 3.1805546814635168e-15 -3.212105503910717 5.932738524028659 -7.672308930282063 7.878557163060809 1.2215252379518506e-06 3.1611428092331203e-06 6.3611093629270335e-15 -1.7655625192200634e-31 -3.1805546814635168e-15 -47.844361071285284 8.16458776522087 96.2800858013144 -70.76925565362508 1.0589357444046378e-06 3.3264284726049984e-07 -2.53450451179124e-15 0.0 0.0 6.3611093629270335e-15 -1.7655625192200634e-31 -3.1805546814635168e-15 176.48374893626448 -1.1005221015478006 -13.215512464860065 6.3611093629270335e-15 -1.7655625192200634e-31 -3.1805546814635168e-15 -9.96707884850421 10.136911190738784 -63.203944532700135 51.88552445760987 -9.125413960155528e-07 3.3241467972499593e-06 0.0 0.0 0.0 -1.7655625192200634e-31 6.3611093629270335e-15 3.1805546814635168e-15 3.31708046792226 -6.219206492080025 17.65946568475523 -7.026696079561867 32.817195426434196 -19.868429819174338 6.3611093629270335e-15 -6.3611093629270335e-15 -3.1805546814635164e-15
-2.4407499950029887e-06 1.4322806596755981 -1.4423858374357224e-05 110.6263194302051 41.04795703366848 67.69840461118748 6.3611093629270335e-15 0.0 0.0 -2.0128278188647157 5.24603851250156 8.089326387592758 -3.1509615612495736 13.270482693583213 4.530270210592737 -3.1805546814635168e-15 0.0 0.0 6.3611093629270335e-15 0.0 0.0 -3.0726484128996874 7.927255421100878 -3.5983915556348594 8.574956476618494 -1.0976377481505142e-06 2.95072828442863e-06 0.0 -6.3611093629270335e-15 0.0 -85.94207136413874 2.2941987982238445 92.3051588874355 -42.41239109766215 3.318075483584295e-06 2.158651835631006e-06 2.3854160110976368e-15 -3.1805546814635164e-15 -6.361109362927033e-15 0.0 -6.3611093629270335e-15 0.0 37.818920636650695 10.36515416204745 1.2004226560849605 0.0 -6.3611093629270335e-15 0.0 -11.075279235958206 4.755948732099914 -69.3433441624454 33.283402605523946 -4.597133205393475e-07 1.6635859492528732e-06 0.0 0.0 0.0 6.3611093629270335e-15 0.0 0.0 2.2106716239659865 -5.7900507564092365 14.595030358993856 -3.7110054998215487 29.561660466260875 -13.962208119348238 3.1805546814635168e-15 6.3611093629270335e-15 -1.7655625192200634e-31
-6.269721779972315e-06 1.4322810173034668 -1.2497144780354574e-05 100.59385425825306 28.322778824074206 74.00229401607561 0.0 0.0 6.3611093629270335e-15 -1.60846182797378 2.5212708645214867 6.433045831076893 -4.617366301083574 9.315015921460063 9.604478697702726 0.0 0.0 -6.3611093629270335e-15 0.0 0.0 6.3611093629270335e-15 -4.098553737559953 6.408740211844648 -0.14491226695667492 14.649475699841943 -1.9681401239429597e-06 1.976775655216229e-06 -3.1805546814635168e-15 6.3611093629270335e-15 3.1805546814635168e-15 -96.00296154196161 5.618424886952516 86.93056600151428 -38.71617683340329 2.5845251075248298e-06 4.985737574835042e-06 1.5902773407317582e-15 -8.827812596100317e-32 -6.361109362927033e-15 -3.1805546814635168e-15 6.3611093629270335e-15 3.1805546814635168e-15 56.381408538514215 12.346596623463109 -1.8248903223087383 -3.1805546814635168e-15 6.3611093629270335e-15 3.1805546814635168e-15 7.111798283737201 6.188967194317627 -76.01246475002871 35.54029154586158 -1.0391865524905594e-06 4.497228493747156e-06 1.7655625192200634e-31 -3.1805546814635168e-15 6.3611093629270335e-15 0.0 0.0 6.3611093629270335e-15 17.321982916781884 -25.13636958736195 28.751579489188103 -22.85380057258295 71.1843584216049 -9.595252505315944 -3.1805546814635164e-15 6.361109362927033e-15 1.7655625192200634e-31
-8.84757719177287e-06 1.432281255722046 -1.0040403140010312e-05 89.42822044417193 -9.33270109886656 78.10611646531456 1.7655625192200634e-31 -6.361109362927035e-15 3.1805546814635176e-15 5.009597595655572 -4.970790861461713 3.6542572343313675 -7.424582007737299 8.204326440204918 17.950750385634702 3.1805546814635168e-15 -3.180554681463516e-15 9.541664044390549e-15 1.7655625192200634e-31 -6.361109362927035e-15 3.1805546814635176e-15 -3.763160485644175 3.724024088963874 5.93054527554483 41.06664174221792 -4.2400311972715224e-07 2.289684971445036e-07 0.0 -1.2722218725854067e-14 0.0 -86.0461919147794 8.046188449839159 80.64195534863404 -37.5760365772425 -4.232251504937999e-06 -2.9267080510738985e-06 -9.54166404439055e-15 3.180554681463516e-15 6.3611093629270335e-15 0.0 -1.2722218725854067e-14 0.0 159.8661249618348 -9.005698935436701 -14.411185410650203 0.0 -1.2722218725854067e-14 0.0 -16.90967477805449 1.0537787203932591 -82.19460123267443 35.250907285974996 1.569602921914756e-07 8.111899620247555e-07 6.361109362927033e-15 -8.827812596100317e-32 -1.5902773407317582e-15 1.7655625192200634e-31 -6.361109362927035e-15 3.1805546814635176e-15 83.43125799241984 -44.6360261548059 65.29679477431448 -156.63769051216792 47.36863856667426 122.92978050141272 -4.770832022195274e-15 -6.361109362927033e-15 -1.5902773407317584e-15
